<svg xmlns="http://www.w3.org/2000/svg" viewBox="0 0 96 96" width="96" height="96" role="img" aria-label="coins">
  <path d="M14 6h50l22 22v58a4 4 0 0 1-4 4H14a4 4 0 0 1-4-4V10a4 4 0 0 1 4-4z" fill="#FFC21A"/>
  <path d="M64 6v18a4 4 0 0 0 4 4h18z" fill="#E09B00"/>
  <path d="M64 6l22 22H68a4 4 0 0 1-4-4z" fill="#FFD866" opacity=".5"/>
  <path d="M10 82h76v4a4 4 0 0 1-4 4H14a4 4 0 0 1-4-4z" fill="#000" opacity=".08"/>
  <ellipse cx="42" cy="66" rx="20" ry="7" fill="#121212"/><rect x="22" y="56" width="40" height="10" fill="#121212"/><ellipse cx="42" cy="56" rx="20" ry="7" fill="#fff"/><ellipse cx="42" cy="56" rx="20" ry="7" fill="none" stroke="#121212" stroke-width="2.5"/><circle cx="60" cy="40" r="14" fill="#121212"/><text x="60" y="46" text-anchor="middle" font-family="Arial,sans-serif" font-weight="700" font-size="17" fill="#FFC21A">£</text>
</svg>
