<svg xmlns="http://www.w3.org/2000/svg" viewBox="0 0 96 96" width="96" height="96" role="img" aria-label="radar">
  <path d="M14 6h50l22 22v58a4 4 0 0 1-4 4H14a4 4 0 0 1-4-4V10a4 4 0 0 1 4-4z" fill="#FFC21A"/>
  <path d="M64 6v18a4 4 0 0 0 4 4h18z" fill="#E09B00"/>
  <path d="M64 6l22 22H68a4 4 0 0 1-4-4z" fill="#FFD866" opacity=".5"/>
  <path d="M10 82h76v4a4 4 0 0 1-4 4H14a4 4 0 0 1-4-4z" fill="#000" opacity=".08"/>
  <circle cx="48" cy="54" r="26" fill="#121212"/><circle cx="48" cy="54" r="17" fill="none" stroke="#FFC21A" stroke-width="2.5"/><circle cx="48" cy="54" r="8" fill="none" stroke="#FFC21A" stroke-width="2.5"/><path d="M48 54l18-18" stroke="#fff" stroke-width="3" stroke-linecap="round"/><circle cx="60" cy="62" r="3.5" fill="#FF5A4A"/><circle cx="38" cy="44" r="2.5" fill="#fff"/>
</svg>
